<svg width="260" height="40" viewBox="0 0 260 40" fill="none" xmlns="http://www.w3.org/2000/svg">
<path d="M5.18167 0C3.56595 0 2.38441 0.532207 1.41886 1.47985C0.0195179 2.88125 -1.6173e-07 4.45962 -1.6173e-07 7.1437C-1.6173e-07 9.827 0.0195179 11.406 1.41886 12.8069C2.38441 13.7544 3.56595 14.2873 5.18167 14.2873C7.8021 14.2873 9.81232 12.7879 10.3242 9.8472H7.52705C7.25056 10.9914 6.5412 11.8404 5.18167 11.8404C4.43314 11.8404 3.82214 11.5641 3.42842 11.1102C2.91592 10.5186 2.73922 9.827 2.73922 7.1437C2.73922 4.45962 2.91592 3.76869 3.42842 3.17706C3.82214 2.72318 4.43314 2.44691 5.18167 2.44691C6.5412 2.44691 7.27073 3.29526 7.54592 4.44007H10.3242C9.81232 1.4994 7.78323 0 5.18167 0Z" transform="translate(0 35.1318) scale(1.33333 -1.33333)" fill="#7BC142"/>
<path d="M5.93085 4.44007H3.97996C2.9556 4.44007 2.46274 4.02606 2.46274 3.25603C2.46274 2.54556 2.9556 2.09167 4.01978 2.09167C4.65029 2.09167 5.10347 2.17077 5.537 2.58478C5.83235 2.84137 5.93085 3.23648 5.93085 3.88753V4.44007ZM5.99017 0.098648V0.986739C5.30033 0.295815 4.65029 -1.14573e-07 3.4681 -1.14573e-07C2.30556 -1.14573e-07 1.43902 0.315492 0.84767 0.907769C0.295353 1.47985 1.45951e-07 2.30917 1.45951e-07 3.21694C1.45951e-07 4.85408 1.12351 6.1967 3.54708 6.1967H5.93085V6.71001C5.93085 7.83462 5.37918 8.3276 4.01978 8.3276C3.0939 8.3276 2.60092 8.07166 2.04938 7.43951L0.433659 9.0382C1.43902 10.1438 2.40406 10.499 4.11827 10.499C7.01454 10.499 8.4926 9.27524 8.4926 6.86743V0.098648H5.99017Z" transform="translate(15.6859 35.1057) scale(1.33333 -1.33333)" fill="#7BC142"/>
<path d="M2.99476 0C0.886706 0 -8.08648e-08 1.47985 -8.08648e-08 2.94002V14.0509H2.56175V3.09809C2.56175 2.48614 2.81742 2.17077 3.4681 2.17077H4.45266V0H2.99476Z" transform="translate(30.5581 34.9742) scale(1.33333 -1.33333)" fill="#7BC142"/>
<path d="M2.99541 0C0.886835 0 2.76124e-08 1.47985 2.76124e-08 2.94002V14.0509H2.56188V3.09809C2.56188 2.48614 2.81742 2.17077 3.4681 2.17077H4.4533V0H2.99541Z" transform="translate(39.0969 34.9742) scale(1.33333 -1.33333)" fill="#7BC142"/>
<path d="M5.79254 0H3.78298L1.06505e-07 10.2815H2.69928L4.78782 3.92741L6.85659 10.2815H9.556L5.79254 0Z" transform="translate(44.9061 34.9742) scale(1.33333 -1.33333)" fill="#7BC142"/>
<path d="M5.537 7.75487C5.241 8.05134 4.84715 8.20876 4.33465 8.20876C3.84243 8.20876 3.44794 8.05134 3.15259 7.75487C2.62056 7.24221 2.56175 6.3149 2.56175 5.26874C2.56175 4.20354 2.62056 3.27558 3.15259 2.7624C3.44794 2.46646 3.84243 2.30852 4.33465 2.30852C4.84715 2.30852 5.241 2.46646 5.537 2.7624C6.06902 3.27558 6.12771 4.20354 6.12771 5.26874C6.12771 6.3149 6.06902 7.24221 5.537 7.75487ZM7.52705 1.26301C6.87623 0.591629 5.852 -5.5311e-08 4.33465 -5.5311e-08C2.81742 -5.5311e-08 1.81271 0.591629 1.16254 1.26301C0.23667 2.2491 -2.32733e-07 3.41345 -2.32733e-07 5.26874C-2.32733e-07 7.12402 0.23667 8.26818 1.16254 9.25557C1.81271 9.92565 2.81742 10.5186 4.33465 10.5186C5.852 10.5186 6.87623 9.94584 7.52705 9.25557C8.45292 8.26818 8.68959 7.12402 8.68959 5.26874C8.68959 3.41345 8.47243 2.23007 7.52705 1.26301Z" transform="translate(59.094 35.1317) scale(1.33333 -1.33333)" fill="#7BC142"/>
<path d="M0.0390368 9.98572H2.60014V-1.00745e-07H0.0390368V9.98572ZM7.88924e-07 14.13H2.62043V12.0376H7.88924e-07V14.13Z" transform="translate(73.8881 34.9742) scale(1.33333 -1.33333)" fill="#7BC142"/>
<path d="M4.29548 11.8599C2.75861 11.8599 2.56111 10.578 2.56111 8.91988C2.56111 7.26176 2.75861 5.95966 4.29548 5.95966C5.83235 5.95966 6.02921 7.26176 6.02921 8.91988C6.02921 10.578 5.83235 11.8599 4.29548 11.8599ZM7.52692 4.57846C6.95508 3.98618 6.04873 3.65114 5.04401 3.65114C3.99948 3.65114 3.21179 3.92741 2.56111 4.67711V-7.90157e-09H2.01176e-07V14.0509H2.4829V13.0837C3.19162 13.8733 3.9408 14.1697 5.04401 14.1697C6.04873 14.1697 6.95508 13.8334 7.52692 13.2417C8.51147 12.2353 8.59044 10.6368 8.59044 8.91988C8.59044 7.20299 8.51147 5.58475 7.52692 4.57846Z" transform="translate(81.1655 40) scale(1.33333 -1.33333)" fill="#7BC142"/>
<path d="M6.40354 11.604V-3.47669e-07H3.66445V11.604H-4.73355e-08V14.0509H10.068V11.604H6.40354Z" transform="translate(94.485 34.9742) scale(1.33333 -1.33333)" fill="white"/>
<path d="M6.18703 7.32131C5.9112 7.93327 5.34001 8.38702 4.47282 8.38702C3.60563 8.38702 3.03445 7.93327 2.75874 7.32131C2.58127 6.94588 2.54223 6.67026 2.52207 6.21638H6.4237C6.40354 6.67026 6.36438 6.94588 6.18703 7.32131ZM2.52207 4.45974C2.52207 3.11764 3.31028 2.17077 4.76818 2.17077C5.89168 2.17077 6.44322 2.50582 7.09339 3.13796L8.64977 1.61824C7.60589 0.552532 6.60105 -1.81736e-07 4.74866 -1.81736e-07C2.32508 -1.81736e-07 -1.45951e-07 1.10494 -1.45951e-07 5.26887C-1.45951e-07 8.62355 1.81258 10.5186 4.47282 10.5186C7.33006 10.5186 8.94577 8.46548 8.94577 5.545V4.45974H2.52207Z" transform="translate(107.832 35.1318) scale(1.33333 -1.33333)" fill="white"/>
<path d="M2.99476 0C0.886706 0 -8.08648e-08 1.47985 -8.08648e-08 2.94002V14.0509H2.56123V3.09809C2.56123 2.48614 2.81742 2.17077 3.46746 2.17077H4.45266V0H2.99476Z" transform="translate(122.779 34.9742) scale(1.33333 -1.33333)" fill="white"/>
<path d="M6.18703 7.32131C5.9112 7.93327 5.34001 8.38702 4.47282 8.38702C3.60563 8.38702 3.03445 7.93327 2.75874 7.32131C2.58127 6.94588 2.54159 6.67026 2.52207 6.21638H6.4237C6.40354 6.67026 6.36438 6.94588 6.18703 7.32131ZM2.52207 4.45974C2.52207 3.11764 3.31028 2.17077 4.76818 2.17077C5.89168 2.17077 6.44322 2.50582 7.09339 3.13796L8.64977 1.61824C7.60589 0.552532 6.60105 -1.81736e-07 4.74866 -1.81736e-07C2.32508 -1.81736e-07 -1.45951e-07 1.10494 -1.45951e-07 5.26887C-1.45951e-07 8.62355 1.81258 10.5186 4.47282 10.5186C7.33006 10.5186 8.94577 8.46548 8.94577 5.545V4.45974H2.52207Z" transform="translate(130.739 35.1318) scale(1.33333 -1.33333)" fill="white"/>
<path d="M3.62528 8.03179V-4.74094e-08H1.06353V8.03179H-1.14394e-07V9.98572H1.06353V11.2683C1.06353 12.7284 1.9704 14.2083 4.05881 14.2083H5.51683V12.0375H4.51199C3.90112 12.0375 3.62528 11.7025 3.62528 11.1102V9.98572H5.51683V8.03179H3.62528Z" transform="translate(144.797 34.9742) scale(1.33333 -1.33333)" fill="white"/>
<path d="M5.537 7.75487C5.241 8.05134 4.84715 8.20876 4.33465 8.20876C3.84243 8.20876 3.44794 8.05134 3.15259 7.75487C2.62056 7.24221 2.56175 6.3149 2.56175 5.26874C2.56175 4.20354 2.62056 3.27558 3.15259 2.7624C3.44794 2.46646 3.84243 2.30852 4.33465 2.30852C4.84715 2.30852 5.241 2.46646 5.537 2.7624C6.06902 3.27558 6.12771 4.20354 6.12771 5.26874C6.12771 6.3149 6.06902 7.24221 5.537 7.75487ZM7.52705 1.26301C6.87623 0.591629 5.852 -5.5311e-08 4.33465 -5.5311e-08C2.81742 -5.5311e-08 1.81271 0.591629 1.16254 1.26301C0.23667 2.2491 -2.32733e-07 3.41345 -2.32733e-07 5.26874C-2.32733e-07 7.12402 0.23667 8.26818 1.16254 9.25557C1.81271 9.92565 2.81742 10.5186 4.33465 10.5186C5.852 10.5186 6.87623 9.94584 7.52705 9.25557C8.45292 8.26818 8.68959 7.12402 8.68959 5.26874C8.68959 3.41345 8.47243 2.23007 7.52705 1.26301Z" transform="translate(154.177 35.1317) scale(1.33333 -1.33333)" fill="white"/>
<path d="M5.97001 0V6.21638C5.97001 7.61778 5.0833 8.09056 4.27545 8.09056C3.46759 8.09056 2.56123 7.61778 2.56123 6.21638V0H-3.55016e-08V10.2815H2.50255V9.33454C3.17211 10.0451 4.11827 10.4004 5.06366 10.4004C6.08867 10.4004 6.91605 10.064 7.48723 9.49196C8.31474 8.66329 8.53176 7.6961 8.53176 6.57161V0H5.97001Z" transform="translate(168.996 34.9742) scale(1.33333 -1.33333)" fill="white"/>
<path d="M0.0391633 9.98572H2.60026V-1.00745e-07H0.0391633V9.98572ZM1.13605e-06 14.13H2.62043V12.0376H1.13605e-06V14.13Z" transform="translate(183.974 34.9742) scale(1.33333 -1.33333)" fill="white"/>
<path d="M6.18703 7.32131C5.9112 7.93327 5.34001 8.38702 4.47282 8.38702C3.60563 8.38702 3.03445 7.93327 2.75874 7.32131C2.58127 6.94588 2.54223 6.67026 2.52207 6.21638H6.4237C6.40354 6.67026 6.36438 6.94588 6.18703 7.32131ZM2.52207 4.45974C2.52207 3.11764 3.31028 2.17077 4.76818 2.17077C5.89168 2.17077 6.44322 2.50582 7.09339 3.13796L8.64977 1.61824C7.60589 0.552532 6.60105 -1.81736e-07 4.74866 -1.81736e-07C2.32508 -1.81736e-07 -1.45951e-07 1.10494 -1.45951e-07 5.26887C-1.45951e-07 8.62355 1.81258 10.5186 4.47282 10.5186C7.33006 10.5186 8.94577 8.46548 8.94577 5.545V4.45974H2.52207Z" transform="translate(190.542 35.1318) scale(1.33333 -1.33333)" fill="white"/>
<path d="M5.17534e-06 2.92099H2.93544V7.50649e-08H5.17534e-06V2.92099Z" transform="translate(205.466 34.9741) scale(1.33333 -1.33333)" fill="white"/>
<path d="M5.97001 0V6.21638C5.97001 7.61778 5.0833 8.09056 4.27545 8.09056C3.46759 8.09056 2.56123 7.61778 2.56123 6.21638V0H-3.55016e-08V10.2815H2.50255V9.33454C3.17211 10.0451 4.11827 10.4004 5.06366 10.4004C6.08867 10.4004 6.91605 10.064 7.48723 9.49196C8.31474 8.66329 8.53176 7.6961 8.53176 6.57161V0H5.97001Z" transform="translate(213.059 34.9742) scale(1.33333 -1.33333)" fill="white"/>
<path d="M2.99476 0C0.886706 0 -8.08648e-08 1.47985 -8.08648e-08 2.94002V14.0509H2.56123V3.09809C2.56123 2.48614 2.81742 2.17077 3.46746 2.17077H4.45266V0H2.99476Z" transform="translate(227.958 34.9742) scale(1.33333 -1.33333)" fill="white"/>
<path d="M13.0039 6.5109C13.4539 6.5109 13.8598 6.69292 14.1545 6.98692L15.3051 5.83642C14.7156 5.24789 13.9014 4.88321 13.0039 4.88321C11.2102 4.88321 9.75415 6.34092 9.75415 8.13794C9.75415 9.93575 11.2102 11.3935 13.0039 11.3935C13.9014 11.3935 14.7156 11.0293 15.3051 10.4408L14.1545 9.28845C13.8598 9.58426 13.4539 9.76628 13.0039 9.76628C12.1065 9.76628 11.3794 9.03691 11.3794 8.13794C11.3794 7.23975 12.1065 6.5109 13.0039 6.5109ZM13.0039 13.0211C10.8827 13.0211 9.08136 11.6614 8.41116 9.76628H6.50255H3.25095H-4.33908e-07V6.5109H3.25095V3.25551V9.48189e-08H6.50255V3.25551V6.5109H8.41116C9.08136 4.6151 10.8827 3.25551 13.0039 3.25551C15.699 3.25551 17.882 5.4426 17.882 8.13794C17.882 10.8352 15.699 13.0211 13.0039 13.0211Z" transform="translate(236.157 17.3616) scale(1.33333 -1.33333)" fill="#7BC142"/>
</svg>
